{
  "accessors": [
    {
      "bufferView": 2,
      "componentType": 5126,
      "count": 2181,
      "max": [
        1.8119908571243286,
        -4.9714126586914062,
        -2.4031538963317871
      ],
      "min": [
        -2.0556840896606445,
        -9.4050674438476562,
        -4.996492862701416
      ],
      "type": "VEC3"
    },
    {
      "bufferView": 2,
      "byteOffset": 26172,
      "componentType": 5126,
      "count": 2181,
      "max": [
        0.99997794628143311,
        0.97454589605331421,
        0.99068152904510498
      ],
      "min": [
        -0.99732297658920288,
        -0.99982476234436035,
        -0.8465728759765625
      ],
      "type": "VEC3"
    },
    {
      "bufferView": 3,
      "componentType": 5126,
      "count": 2181,
      "max": [
        0.99131530523300171,
        0.99865400791168213,
        0.99949508905410767,
        1
      ],
      "min": [
        -0.98806232213973999,
        -0.99938505887985229,
        -0.9988555908203125,
        -1
      ],
      "type": "VEC4"
    },
    {
      "bufferView": 1,
      "componentType": 5126,
      "count": 2181,
      "max": [
        0.82163500785827637,
        0.99000000953674316
      ],
      "min": [
        0.0099999997764825821,
        0.19647799432277679
      ],
      "type": "VEC2"
    },
    {
      "bufferView": 0,
      "componentType": 5125,
      "count": 9900,
      "max": [
        2180
      ],
      "min": [
        0
      ],
      "type": "SCALAR"
    },
    {
      "bufferView": 2,
      "byteOffset": 52344,
      "componentType": 5126,
      "count": 1205,
      "max": [
        1.0725446939468384,
        -7.0760374069213867,
        -2.4434270858764648
      ],
      "min": [
        0.98131823539733887,
        -7.464693546295166,
        -3.2450380325317383
      ],
      "type": "VEC3"
    },
    {
      "bufferView": 2,
      "byteOffset": 66804,
      "componentType": 5126,
      "count": 1205,
      "max": [
        0.99754339456558228,
        0.91507166624069214,
        0.80141544342041016
      ],
      "min": [
        -0.99987196922302246,
        -0.64068853855133057,
        -0.87245815992355347
      ],
      "type": "VEC3"
    },
    {
      "bufferView": 3,
      "byteOffset": 34896,
      "componentType": 5126,
      "count": 1205,
      "max": [
        0.98604393005371094,
        0.930061936378479,
        0.99983292818069458,
        1
      ],
      "min": [
        -0.95030951499938965,
        -0.97124052047729492,
        -0.60689342021942139,
        -1
      ],
      "type": "VEC4"
    },
    {
      "bufferView": 1,
      "byteOffset": 17448,
      "componentType": 5126,
      "count": 1205,
      "max": [
        0.34716600179672241,
        0.79757100343704224
      ],
      "min": [
        0.096716001629829407,
        0.28692999482154846
      ],
      "type": "VEC2"
    },
    {
      "bufferView": 0,
      "byteOffset": 39600,
      "componentType": 5125,
      "count": 6408,
      "max": [
        1204
      ],
      "min": [
        0
      ],
      "type": "SCALAR"
    },
    {
      "bufferView": 2,
      "byteOffset": 81264,
      "componentType": 5126,
      "count": 65532,
      "max": [
        2.018033504486084,
        0.0527028888463974,
        -1.6820521354675293
      ],
      "min": [
        -2.5511443614959717,
        -10.563679695129395,
        -5.2543449401855469
      ],
      "type": "VEC3"
    },
    {
      "bufferView": 2,
      "byteOffset": 867648,
      "componentType": 5126,
      "count": 65532,
      "max": [
        0.99999403953552246,
        0.99994218349456787,
        0.99999874830245972
      ],
      "min": [
        -0.99998664855957031,
        -0.99999785423278809,
        -0.99992412328720093
      ],
      "type": "VEC3"
    },
    {
      "bufferView": 3,
      "byteOffset": 54176,
      "componentType": 5126,
      "count": 65532,
      "max": [
        0.99997752904891968,
        0.99957656860351562,
        0.99986118078231812,
        1
      ],
      "min": [
        -0.99985039234161377,
        -0.99980300664901733,
        -0.99996727705001831,
        -1
      ],
      "type": "VEC4"
    },
    {
      "bufferView": 1,
      "byteOffset": 27088,
      "componentType": 5126,
      "count": 65532,
      "max": [
        0.97809702157974243,
        0.99000000953674316
      ],
      "min": [
        0.0099999997764825821,
        0.047692000865936279
      ],
      "type": "VEC2"
    },
    {
      "bufferView": 0,
      "byteOffset": 65232,
      "componentType": 5125,
      "count": 347913,
      "max": [
        65531
      ],
      "min": [
        0
      ],
      "type": "SCALAR"
    },
    {
      "bufferView": 2,
      "byteOffset": 1654032,
      "componentType": 5126,
      "count": 65532,
      "max": [
        2.0817866325378418,
        0.050524495542049408,
        -1.690168023109436
      ],
      "min": [
        -2.542943000793457,
        -9.4195165634155273,
        -4.8597397804260254
      ],
      "type": "VEC3"
    },
    {
      "bufferView": 2,
      "byteOffset": 2440416,
      "componentType": 5126,
      "count": 65532,
      "max": [
        0.99993997812271118,
        0.99987906217575073,
        0.9999537467956543
      ],
      "min": [
        -0.99999666213989258,
        -0.99885207414627075,
        -0.99999183416366577
      ],
      "type": "VEC3"
    },
    {
      "bufferView": 3,
      "byteOffset": 1102688,
      "componentType": 5126,
      "count": 65532,
      "max": [
        0.99994134902954102,
        0.99999964237213135,
        0.99997991323471069,
        1
      ],
      "min": [
        -0.9999922513961792,
        -0.99433934688568115,
        -0.9999961256980896,
        -1
      ],
      "type": "VEC4"
    },
    {
      "bufferView": 1,
      "byteOffset": 551344,
      "componentType": 5126,
      "count": 65532,
      "max": [
        0.99000000953674316,
        0.99000000953674316
      ],
      "min": [
        0.0099999997764825821,
        0.035790000110864639
      ],
      "type": "VEC2"
    },
    {
      "bufferView": 0,
      "byteOffset": 1456884,
      "componentType": 5125,
      "count": 343854,
      "max": [
        65531
      ],
      "min": [
        0
      ],
      "type": "SCALAR"
    },
    {
      "bufferView": 2,
      "byteOffset": 3226800,
      "componentType": 5126,
      "count": 65532,
      "max": [
        1.9540683031082153,
        0.05349721759557724,
        -1.7134120464324951
      ],
      "min": [
        -2.2767155170440674,
        -8.4206476211547852,
        -3.8961939811706543
      ],
      "type": "VEC3"
    },
    {
      "bufferView": 2,
      "byteOffset": 4013184,
      "componentType": 5126,
      "count": 65532,
      "max": [
        0.99998641014099121,
        0.99990034103393555,
        0.99999880790710449
      ],
      "min": [
        -0.99998325109481812,
        -0.99286258220672607,
        -0.99998849630355835
      ],
      "type": "VEC3"
    },
    {
      "bufferView": 3,
      "byteOffset": 2151200,
      "componentType": 5126,
      "count": 65532,
      "max": [
        0.99998646974563599,
        0.99999964237213135,
        0.99998641014099121,
        1
      ],
      "min": [
        -0.99999970197677612,
        -0.99951767921447754,
        -0.99992120265960693,
        -1
      ],
      "type": "VEC4"
    },
    {
      "bufferView": 1,
      "byteOffset": 1075600,
      "componentType": 5126,
      "count": 65532,
      "max": [
        0.95956498384475708,
        0.99000000953674316
      ],
      "min": [
        0.0099999997764825821,
        0.021903000771999359
      ],
      "type": "VEC2"
    },
    {
      "bufferView": 0,
      "byteOffset": 2832300,
      "componentType": 5125,
      "count": 331542,
      "max": [
        65531
      ],
      "min": [
        0
      ],
      "type": "SCALAR"
    },
    {
      "bufferView": 2,
      "byteOffset": 4799568,
      "componentType": 5126,
      "count": 34957,
      "max": [
        1.9390590190887451,
        0.05349721759557724,
        -1.6828420162200928
      ],
      "min": [
        -2.2421860694885254,
        -9.3055763244628906,
        -5.2509541511535645
      ],
      "type": "VEC3"
    },
    {
      "bufferView": 2,
      "byteOffset": 5219052,
      "componentType": 5126,
      "count": 34957,
      "max": [
        0.99999457597732544,
        0.99994921684265137,
        0.99999839067459106
      ],
      "min": [
        -0.99989819526672363,
        -0.93498384952545166,
        -0.99998283386230469
      ],
      "type": "VEC3"
    },
    {
      "bufferView": 3,
      "byteOffset": 3199712,
      "componentType": 5126,
      "count": 34957,
      "max": [
        0.99999767541885376,
        0.99999755620956421,
        0.999900221824646,
        1
      ],
      "min": [
        -0.99953120946884155,
        -0.99995541572570801,
        -0.99999868869781494,
        -1
      ],
      "type": "VEC4"
    },
    {
      "bufferView": 1,
      "byteOffset": 1599856,
      "componentType": 5126,
      "count": 34957,
      "max": [
        0.95423102378845215,
        0.99000000953674316
      ],
      "min": [
        0.0099999997764825821,
        0.044888000935316086
      ],
      "type": "VEC2"
    },
    {
      "bufferView": 0,
      "byteOffset": 4158468,
      "componentType": 5125,
      "count": 156669,
      "max": [
        34956
      ],
      "min": [
        0
      ],
      "type": "SCALAR"
    }
  ],
  "asset": {
    "extras": {
      "author": "urbanmasque (https://sketchfab.com/urbanmasque)",
      "license": "CC-BY-4.0 (http://creativecommons.org/licenses/by/4.0/)",
      "source": "https://sketchfab.com/models/22bde3fe9e1f4f29a5c334135d6a9b57",
      "title": "Warren R."
    },
    "generator": "Sketchfab-3.20.8",
    "version": "2.0"
  },
  "bufferViews": [
    {
      "buffer": 0,
      "byteLength": 4785144,
      "byteOffset": 0,
      "name": "floatBufferViews",
      "target": 34963
    },
    {
      "buffer": 0,
      "byteLength": 1879512,
      "byteOffset": 4785144,
      "byteStride": 8,
      "name": "floatBufferViews",
      "target": 34962
    },
    {
      "buffer": 0,
      "byteLength": 5638536,
      "byteOffset": 6664656,
      "byteStride": 12,
      "name": "floatBufferViews",
      "target": 34962
    },
    {
      "buffer": 0,
      "byteLength": 3759024,
      "byteOffset": 12303192,
      "byteStride": 16,
      "name": "floatBufferViews",
      "target": 34962
    }
  ],
  "buffers": [
    {
      "byteLength": 16062216,
      "uri": "scene.bin"
    }
  ],
  "extensionsUsed": [
    "KHR_materials_unlit"
  ],
  "images": [
    {
      "uri": "textures/output_baseColor.jpeg"
    }
  ],
  "materials": [
    {
      "doubleSided": true,
      "emissiveFactor": [
        0,
        0,
        0
      ],
      "extensions": {
        "KHR_materials_unlit": {}
      },
      "name": "output",
      "pbrMetallicRoughness": {
        "baseColorFactor": [
          1,
          1,
          1,
          1
        ],
        "baseColorTexture": {
          "index": 0,
          "texCoord": 0
        },
        "metallicFactor": 0,
        "roughnessFactor": 1
      }
    }
  ],
  "meshes": [
    {
      "primitives": [
        {
          "attributes": {
            "NORMAL": 1,
            "POSITION": 0,
            "TANGENT": 2,
            "TEXCOORD_0": 3
          },
          "indices": 4,
          "material": 0,
          "mode": 4
        }
      ]
    },
    {
      "primitives": [
        {
          "attributes": {
            "NORMAL": 6,
            "POSITION": 5,
            "TANGENT": 7,
            "TEXCOORD_0": 8
          },
          "indices": 9,
          "material": 0,
          "mode": 4
        }
      ]
    },
    {
      "primitives": [
        {
          "attributes": {
            "NORMAL": 11,
            "POSITION": 10,
            "TANGENT": 12,
            "TEXCOORD_0": 13
          },
          "indices": 14,
          "material": 0,
          "mode": 4
        }
      ]
    },
    {
      "primitives": [
        {
          "attributes": {
            "NORMAL": 16,
            "POSITION": 15,
            "TANGENT": 17,
            "TEXCOORD_0": 18
          },
          "indices": 19,
          "material": 0,
          "mode": 4
        }
      ]
    },
    {
      "primitives": [
        {
          "attributes": {
            "NORMAL": 21,
            "POSITION": 20,
            "TANGENT": 22,
            "TEXCOORD_0": 23
          },
          "indices": 24,
          "material": 0,
          "mode": 4
        }
      ]
    },
    {
      "primitives": [
        {
          "attributes": {
            "NORMAL": 26,
            "POSITION": 25,
            "TANGENT": 27,
            "TEXCOORD_0": 28
          },
          "indices": 29,
          "material": 0,
          "mode": 4
        }
      ]
    }
  ],
  "nodes": [
    {
      "children": [
        1
      ],
      "name": "RootNode (gltf orientation matrix)",
      "rotation": [
        -0.70710678118654746,
        -0,
        -0,
        0.70710678118654757
      ]
    },
    {
      "children": [
        2
      ],
      "matrix": [
        1,
        0,
        0,
        0,
        0,
        0,
        -1,
        0,
        0,
        1,
        0,
        0,
        0,
        -1.7869116067886353,
        -8.723332405090332,
        1
      ],
      "name": "RootNode (model correction matrix)"
    },
    {
      "children": [
        3,
        4,
        5,
        6,
        7,
        8
      ],
      "name": "Warren_Reid.obj.cleaner.materialmerger.gles"
    },
    {
      "mesh": 0,
      "name": ""
    },
    {
      "mesh": 1,
      "name": ""
    },
    {
      "mesh": 2,
      "name": ""
    },
    {
      "mesh": 3,
      "name": ""
    },
    {
      "mesh": 4,
      "name": ""
    },
    {
      "mesh": 5,
      "name": ""
    }
  ],
  "samplers": [
    {
      "magFilter": 9729,
      "minFilter": 9987,
      "wrapS": 10497,
      "wrapT": 10497
    }
  ],
  "scene": 0,
  "scenes": [
    {
      "name": "OSG_Scene",
      "nodes": [
        0
      ]
    }
  ],
  "textures": [
    {
      "sampler": 0,
      "source": 0
    }
  ]
}

